<?xml version="1.0" encoding="UTF-8"?>
<svg id="Icon_-_Color_Composition" data-name="Icon - Color Composition" xmlns="http://www.w3.org/2000/svg" viewBox="0 0 360 360">
  <defs>
    <style>
      .cls-1 {
        fill: #71f7ca;
      }

      .cls-2 {
        fill: #245f8a;
      }

      .cls-3 {
        fill: #22234a;
      }
      <!-- dark theme -->
      @media (prefers-color-scheme: dark) {
       .cls-1 {
         fill: #71f7ca;
       }

       .cls-2 {
         fill: #3FA9F5;
       }

       .cls-3 {
         fill: #fff;
       }       
      }
    </style>
  </defs>
  <path id="Underline" class="cls-1" d="M238.38,332.15v15.17h51.96c15.78,0,28.76-5.58,38.5-15.17h-90.46Z"/>
  <g id="Ext._Dot" data-name="Ext. Dot">
    <path class="cls-1" d="M218.06,281.76c.38,2.05.59,4.12.63,6.18.07,4.3-.69,8.63-2.29,12.8-.25.64-.52,1.32-.84,1.97-.19.43-.4.85-.61,1.27-.26.51-.51.99-.8,1.49l-.14.25c-.21.36-.4.7-.63,1.04-3.16,5.01-7.39,8.9-12.26,11.63-1.82,1.02-3.72,1.87-5.68,2.57l22.63-39.2Z"/>
    <path class="cls-2" d="M202.78,268.38c2.07-3.58,7.17-3.78,9.51-.37l.05.07c.8,1.15,1.52,2.35,2.15,3.55l-29.62,51.3c-1.35.06-2.73.01-4.15-.09-1.31-.11-2.63-.29-3.95-.54-2.25-.43-3.45-2.91-2.3-4.89l28.31-49.04Z"/>
    <path class="cls-3" d="M188.59,252.72c-1.23-.22-2.46-.38-3.69-.48-1.4-.12-2.8-.14-4.15-.09l-29.62,51.3c.63,1.2,1.36,2.37,2.15,3.55.68,1,1.43,1.99,2.25,2.95.22.25.41.48.65.74.88.93,2.79,2.69,2.79,2.69l32.04-55.49c1.21-2.1-.05-4.74-2.43-5.18Z"/>
  </g>
  <path id="Bottom" class="cls-2" d="M314.12,300.06c-4.5,11.69-12.62,19.15-23.78,19.15h-20.88v-3.87h-31.08v11.62h95.13c5.89-7.42,10.26-16.53,12.9-26.9h-32.29ZM238.38,300.06v10.08h31.08v-10.08h-31.08Z"/>
  <path id="Mid" class="cls-3" d="M290.33,200.6h-4.96l-47,.02-145.38.09-45.57-38.41,44.84-31.03h38.91v28.13h31.1v-56.33h-78.77L10.61,153.69v14.26l72.13,60.81,155.64-.09v14.15h31.08v-14.11h20.88c16.81,0,26.62,17.57,27.94,40.19h31.12c-1.8-39.06-23.22-68.3-59.06-68.3ZM238.38,248.02v20.88h31.08v-20.88h-31.08ZM201.24,103.07v56.33h31.08v-56.33h-31.08Z"/>
  <path id="Top" class="cls-2" d="M131.17,12.68v59.23h31.1V12.68h-31.1ZM216.09,12.68c-8.2,0-14.85,6.64-14.85,14.85v44.38h31.08V12.68h-16.23Z"/>
</svg>