<?xml version="1.0" encoding="UTF-8"?>
<svg id="Logo_-_Color_Composition" data-name="Logo - Color Composition" xmlns="http://www.w3.org/2000/svg" viewBox="0 0 360 360">
  <defs>
    <style>
      .cls-1 {
        fill: #71f7ca;
      }

      .cls-2 {
        fill: #245f8a;
      }

      .cls-3 {
        fill: #22234a;
      }
      <!-- dark theme -->
      @media (prefers-color-scheme: dark) {
       .cls-1 {
         fill: #71f7ca;
       }

       .cls-2 {
         fill: #3FA9F5;
       }

       .cls-3 {
         fill: #fff;
       }       
      }
    </style>
  </defs>
  <path id="Underline" class="cls-1" d="M116.52,250.31v7.01h24.01c7.28,0,13.28-2.58,17.78-7.01h-41.8ZM220.06,250.31l1.66,7.01h10.73l1.98-7.01h-14.36ZM194.93,250.31l1.98,7.01h10.73l1.63-7.01h-14.34ZM272.98,257.32c3.96,0,7.56-1.61,10.15-4.21.84-.84,1.57-1.78,2.18-2.8h-12.34v7.01Z"/>
  <g id="Ext._Dot" data-name="Ext. Dot">
    <path class="cls-1" d="M107.13,227.02c.17.95.27,1.9.29,2.86.03,1.99-.32,3.99-1.06,5.91-.11.29-.24.61-.39.91-.09.2-.18.39-.28.59-.12.23-.24.46-.37.69l-.07.11c-.1.17-.19.32-.29.48-1.46,2.32-3.41,4.11-5.67,5.37-.84.47-1.72.86-2.62,1.19l10.46-18.11Z"/>
    <path class="cls-2" d="M100.07,220.84c.96-1.66,3.31-1.75,4.39-.17l.02.03c.37.53.7,1.09.99,1.64l-13.69,23.7c-.63.03-1.26,0-1.92-.04-.61-.05-1.22-.13-1.82-.25-1.04-.2-1.59-1.34-1.06-2.26l13.08-22.66Z"/>
    <path class="cls-3" d="M93.52,213.6c-.57-.1-1.14-.18-1.7-.22-.65-.05-1.29-.07-1.92-.04l-13.69,23.7c.29.55.63,1.1.99,1.64.32.46.66.92,1.04,1.36.1.11.19.22.3.34.4.43,1.29,1.24,1.29,1.24l14.8-25.64c.56-.97-.02-2.19-1.12-2.39Z"/>
  </g>
  <path id="Bottom" class="cls-2" d="M116.52,235.48v4.66h14.36v-4.66h-14.36ZM151.52,235.48c-2.09,5.4-5.83,8.84-10.99,8.84h-9.65v-1.79h-14.36v5.38h43.96c2.72-3.43,4.74-7.64,5.96-12.43h-14.92ZM216.55,235.48l2.94,12.43h15.61l3.52-12.43h-22.07ZM190.73,235.48l3.52,12.43h15.58l2.89-12.43h-21.98ZM272.98,235.48v12.43h13.49c.56-1.55.88-3.22.88-4.96v-7.48h-14.36Z"/>
  <path id="Mid" class="cls-3" d="M219.65,199.65h-9.95l-4.52,21.43h18.98l-4.51-21.43ZM192.97,189.52h-15.25l8.93,31.56h13.44l-7.12-31.56ZM99.36,144.45v26.03h14.36v-26.03h-14.36ZM167.82,221.08h-14.38c-.61-10.45-5.15-18.58-12.91-18.58h-9.65v18.58h-14.36v-9.65h14.36v-2.4h-14.36v-6.54l-71.92.04-33.34-28.1v-6.59l33.68-23.39h36.4v26.03h-14.36v-13h-17.99l-20.71,14.34,21.06,17.75,67.18-.04h21.72s2.29-.01,2.29-.01c16.56,0,26.46,13.51,27.29,31.56ZM141.86,144.45v26.03h14.38v-26.03h-14.38ZM247.33,144.45h-14.17l2.48,26.03h14.36l-2.68-26.03ZM202.94,144.45l7.12,18.25h10.14l7.12-18.25h-24.37ZM182.87,144.45l-2.72,26.03h10.11c2.47,0,4.54-1.88,4.78-4.34l2.07-21.69h-14.23ZM348.73,177.67v5.84l-21.22,19.02-40.18-.02v18.58h-14.36v-18.58h-25.02l-5.26,18.58h-13.43l5.97-26.51c.66-2.95,3.29-5.05,6.31-5.05h81.01l10.25-9.16-10.37-9.92-22.93.02h-5.69s-30.04.01-30.04.01v-26.03h14.36v13.04h21.36l28.13-.02,21.1,20.2Z"/>
  <path id="Top" class="cls-2" d="M99.36,109.54v20.51h14.36v-27.37h-7.5c-3.79,0-6.86,3.07-6.86,6.86ZM66.98,102.68v27.37h14.36v-27.37h-14.36ZM126.02,102.68v13h15.84v14.38h14.38v-14.38h15.84v-13h-46.06ZM243.02,102.68h-11.41l-11.11,27.37h25.34l-2.82-27.37ZM198.65,102.68h-11.41l-2.87,27.37h25.32l-11.04-27.37ZM263.78,102.68v27.37h14.36v-27.37h-14.36Z"/>
</svg>