<?xml version="1.0" encoding="UTF-8"?>
<svg id="Favicon_-_Test_Site" data-name="Favicon - Test Site" xmlns="http://www.w3.org/2000/svg" viewBox="0 0 360 360">
  <defs>
    <style>
      .cls-1 {
        fill: #fff;
      }

      .cls-2 {
        fill: #7ac943;
      }

      .cls-3 {
        fill: #5cb85c;
      }
    </style>
  </defs>
  <g>
    <path class="cls-3" d="M210.15,323.6c-9.71,1.98-19.76,3.03-30.05,3.03s-20.48-1.06-30.24-3.07c-.18-.04-.35-.07-.53-.12-.18-.03-.36-.07-.53-.11v15.82c0,4.97,4.03,9,9,9h44.43c4.97,0,9-4.03,9-9v-15.79c-.18.04-.35.09-.53.12-.18.04-.35.07-.53.12Z"/>
    <path class="cls-3" d="M110.7,309.51c-18.02-9.5-33.86-22.59-46.56-38.31-.12-.14-.23-.29-.34-.43-.13-.14-.23-.29-.34-.43l-9.66,11.51c-3.2,3.81-2.7,9.49,1.11,12.68l34.04,28.55c3.81,3.19,9.48,2.7,12.68-1.11l10.04-11.97c-.16-.07-.32-.16-.49-.25-.16-.09-.32-.17-.48-.26Z"/>
    <path class="cls-3" d="M42.49,234.88c-7.35-17.63-11.4-36.97-11.4-57.26,0-.65,0-1.31.01-1.96,0-.18.01-.36.01-.54s.01-.36.01-.54l-13.26,2.34c-4.9.86-8.16,5.53-7.3,10.43l7.72,43.75c.86,4.9,5.53,8.16,10.43,7.3l14.2-2.51c-.07-.17-.14-.34-.21-.5-.06-.17-.14-.33-.2-.5Z"/>
    <path class="cls-3" d="M37.78,133.34c.05-.17.11-.35.17-.52,6.16-19.61,16.28-37.47,29.41-52.64.12-.14.23-.28.35-.4.12-.14.23-.28.36-.4l-10.29-5.94c-4.3-2.49-9.81-1.01-12.29,3.29l-22.21,38.47c-2.49,4.3-1.01,9.81,3.29,12.29l11.05,6.38c.05-.17.11-.35.16-.52Z"/>
    <path class="cls-3" d="M100.61,51.57c.15-.1.3-.2.46-.29,16.87-10.58,36.01-17.87,56.53-20.98.17-.02.35-.05.53-.07.17-.03.35-.05.53-.07l-3.76-10.34c-1.7-4.67-6.86-7.08-11.54-5.38l-41.74,15.19c-4.67,1.7-7.08,6.86-5.38,11.53l3.9,10.72c.15-.11.31-.2.47-.3Z"/>
    <path class="cls-3" d="M202.41,30.28c20.53,3.08,39.69,10.35,56.57,20.91.16.1.31.19.46.29.16.1.31.19.46.3l3.86-10.61c1.7-4.67-.71-9.83-5.38-11.53l-41.74-15.2c-4.67-1.7-9.84.71-11.54,5.38l-3.75,10.32c.18.02.36.04.53.07.18.02.36.04.53.07Z"/>
    <path class="cls-3" d="M292.76,80.1c13.14,15.16,23.27,33.01,29.46,52.62.05.17.11.35.16.52.06.17.12.35.16.52l10.89-6.28c4.3-2.49,5.78-7.99,3.29-12.29l-22.21-38.47c-2.49-4.3-7.99-5.78-12.29-3.29l-10.16,5.87c.13.13.25.27.36.4.12.13.23.27.35.4Z"/>
    <path class="cls-3" d="M329.07,174.6c.01.18.01.37.01.55s.01.36.01.53c.01.64.01,1.29.01,1.93,0,20.3-4.06,39.65-11.41,57.29-.06.17-.14.33-.21.5-.06.16-.14.33-.21.5l14.03,2.48c4.89.86,9.56-2.4,10.43-7.3l7.72-43.75c.86-4.9-2.4-9.56-7.3-10.43l-13.07-2.3Z"/>
    <path class="cls-3" d="M296.3,270.9c-.11.14-.22.28-.34.42-12.71,15.71-28.56,28.78-46.59,38.26-.17.1-.33.18-.49.26-.17.1-.33.18-.49.26l9.99,11.9c3.2,3.81,8.87,4.3,12.68,1.11l34.04-28.56c3.81-3.19,4.31-8.87,1.11-12.68l-9.55-11.39c-.12.15-.23.29-.35.44Z"/>
  </g>
  <g id="Globe">
    <g>
      <g>
        <path class="cls-2" d="M170.09,177.75v-90.78l4.88-.12c1.69-.04,3.39-.05,5.12-.05s3.43.01,5.12.05l4.88.12v90.78h-20Z"/>
        <path class="cls-1" d="M180.09,91.8c1.69,0,3.35.01,5,.05v80.9h-10v-80.9c1.65-.04,3.31-.05,5-.05M180.09,81.8c-2.11,0-3.73.02-5.24.05l-9.76.24v100.66h30v-100.66l-9.76-.24c-1.51-.04-3.13-.05-5.24-.05h0Z"/>
      </g>
      <g>
        <path class="cls-2" d="M180.09,268.7c-1.73,0-3.43-.01-5.12-.05l-4.88-.12v-90.78h20v90.78l-4.88.12c-1.69.04-3.39.05-5.12.05Z"/>
        <path class="cls-1" d="M185.09,182.75v80.9c-1.65.04-3.31.05-5,.05s-3.35-.01-5-.05v-80.9h10M195.09,172.75h-30v100.66l9.76.24c1.51.04,3.13.05,5.24.05s3.73-.02,5.24-.05l9.76-.24v-100.66h0Z"/>
      </g>
      <g>
        <path class="cls-2" d="M89.11,177.75l.08-5.08c.34-21.17,2.94-41.01,7.72-58.99l.65-2.46,2.37-.92c3.8-1.47,7.8-2.86,11.9-4.12l9.01-2.77-2.76,9.01c-5.52,18.03-8.51,38.36-8.89,60.41l-.08,4.91h-20Z"/>
        <path class="cls-1" d="M113.3,110.96c-5.01,16.36-8.68,36.68-9.11,61.79h-10c.37-22.83,3.33-41.91,7.55-57.79,3.61-1.4,7.46-2.74,11.56-4M128.38,95.86l-18.02,5.54c-4.21,1.29-8.33,2.72-12.24,4.24l-4.74,1.84-1.31,4.92c-4.88,18.37-7.53,38.62-7.88,60.2l-.16,10.16h29.99l.17-9.83c.37-21.59,3.29-41.45,8.67-59.03l5.52-18.02h0Z"/>
      </g>
      <g>
        <path class="cls-2" d="M251.07,177.75l-.08-4.91c-.38-22.05-3.37-42.38-8.89-60.41l-2.76-9.01,9.01,2.77c4.1,1.26,8.1,2.64,11.9,4.12l2.37.92.65,2.46c4.78,17.98,7.37,37.83,7.72,58.99l.08,5.08h-20Z"/>
        <path class="cls-1" d="M246.88,110.96c4.1,1.26,7.95,2.6,11.56,4,4.22,15.88,7.18,34.96,7.55,57.79h-10c-.43-25.11-4.1-45.43-9.11-61.79M231.8,95.86l5.52,18.02c5.39,17.59,8.3,37.45,8.67,59.03l.17,9.83h29.99l-.16-10.16c-.35-21.57-3-41.83-7.88-60.2l-1.31-4.92-4.74-1.84c-3.91-1.52-8.03-2.94-12.24-4.24l-18.02-5.54h0Z"/>
      </g>
    </g>
    <g>
      <g>
        <path class="cls-2" d="M180.09,268.7c-1.73,0-3.43-.01-5.12-.05-21.13-.34-40.97-2.94-58.95-7.72l-2.46-.65-.92-2.37c-1.47-3.8-2.86-7.8-4.12-11.9l-2.77-9.01,9.01,2.76c18.03,5.52,38.36,8.51,60.41,8.89,1.64.04,3.26.05,4.91.05s3.28,0,4.88-.05c22.11-.38,42.43-3.37,60.45-8.9l9.02-2.77-2.77,9.02c-1.25,4.08-2.64,8.08-4.12,11.9l-.92,2.38-2.46.65c-17.98,4.78-37.83,7.37-58.99,7.72-1.65.04-3.35.05-5.08.05Z"/>
        <path class="cls-1" d="M246.88,244.53c-1.26,4.1-2.6,7.95-4,11.57-15.88,4.22-34.96,7.18-57.79,7.55-1.65.04-3.31.05-5,.05s-3.35-.01-5-.05c-22.83-.37-41.91-3.33-57.79-7.55-1.4-3.61-2.74-7.46-4-11.56,16.36,5.01,36.68,8.68,61.79,9.11,1.65.04,3.31.05,5,.05s3.36-.01,5-.05c25.11-.43,45.43-4.1,61.79-9.12M261.98,229.43l-18.03,5.53c-17.57,5.39-37.43,8.31-59.03,8.68h-.04s-.04,0-.04,0c-1.33.03-2.8.05-4.76.05s-3.41-.01-4.76-.05h-.04s-.04,0-.04,0c-21.59-.37-41.45-3.29-59.03-8.67l-18.02-5.52,5.54,18.02c1.29,4.21,2.72,8.33,4.24,12.24l1.84,4.74,4.92,1.31c18.36,4.88,38.6,7.53,60.16,7.88,1.5.04,3.11.05,5.2.05s3.7-.02,5.2-.05c21.56-.35,41.8-3,60.16-7.88l4.92-1.31,1.84-4.75c1.52-3.93,2.94-8.05,4.23-12.24l5.54-18.03h0Z"/>
      </g>
      <g>
        <path class="cls-2" d="M180.09,322.57c-79.85,0-144.82-64.97-144.82-144.82S100.23,32.93,180.09,32.93s144.82,64.97,144.82,144.82-64.97,144.82-144.82,144.82ZM147.69,298.31c7.29,1.96,14.8,3.25,22.4,3.86v-43.64l5.12.12c1.61.04,3.23.05,4.88.05s3.27,0,4.88-.05l5.12-.12v43.64c7.6-.6,15.11-1.9,22.4-3.86.77-1.07,1.65-2.24,2.62-3.52,5.75-7.59,15.29-20.2,23.1-40.49,1.4-3.61,2.7-7.39,3.89-11.24,5.52-18.03,8.51-38.35,8.89-60.4l.08-4.91h20l-.08,5.08c-.28,17.42-2.09,33.95-5.39,49.28,15.2-6.96,25.17-14.52,31.53-19.34,1.28-.97,2.45-1.85,3.52-2.63,2.41-8.95,3.81-18.22,4.16-27.59l.18-4.81h4.91s-4.91,0-4.91,0l-.18-4.81c-.36-9.37-1.76-18.64-4.16-27.59-1.07-.77-2.24-1.65-3.52-2.62-7.59-5.75-20.2-15.29-40.49-23.1-3.59-1.39-7.36-2.7-11.23-3.89l-2.53-.78-.78-2.53c-1.21-3.95-2.52-7.73-3.87-11.22-7.83-20.34-17.39-32.95-23.1-40.49-.98-1.29-1.86-2.46-2.63-3.53-7.3-1.96-14.8-3.25-22.4-3.86v43.64l-5.12-.12c-1.61-.04-3.23-.05-4.88-.05s-3.27,0-4.88.05l-5.12.12v-43.64c-7.6.6-15.1,1.9-22.4,3.86-.77,1.07-1.65,2.24-2.62,3.52-5.75,7.59-15.29,20.2-23.1,40.49-1.39,3.59-2.7,7.36-3.89,11.23l-.78,2.53-2.53.78c-3.87,1.19-7.64,2.5-11.22,3.88-20.3,7.81-32.91,17.36-40.44,23.06-1.32,1-2.5,1.89-3.57,2.66-2.41,8.95-3.81,18.23-4.16,27.59l-.18,4.81h-4.91s4.91,0,4.91,0l.18,4.81c.36,9.36,1.75,18.64,4.16,27.59,1.07.77,2.24,1.65,3.52,2.62,6.37,4.83,16.35,12.4,31.53,19.35-3.3-15.34-5.1-31.87-5.39-49.29l-.08-5.08h20l.08,4.91c.38,22.05,3.37,42.38,8.89,60.41,1.19,3.86,2.49,7.64,3.88,11.22,7.81,20.3,17.36,32.91,23.06,40.45,1,1.32,1.89,2.5,2.66,3.57ZM258.78,256.44c-3.32,9.43-7.29,18.31-12.01,26.79,15.66-9.91,28.89-23.14,38.8-38.8-8.49,4.71-17.36,8.69-26.79,12.01ZM74.6,244.43c9.91,15.66,23.14,28.89,38.8,38.8-4.71-8.48-8.69-17.36-12.01-26.79-9.43-3.32-18.31-7.29-26.79-12.01ZM258.78,99.05c9.44,3.32,18.31,7.3,26.8,12.01-9.9-15.66-23.14-28.89-38.8-38.8,4.71,8.49,8.68,17.36,12,26.79ZM113.39,72.27c-15.65,9.9-28.88,23.13-38.78,38.78,8.49-4.71,17.36-8.68,26.79-12,3.31-9.42,7.29-18.3,12-26.79Z"/>
        <path class="cls-1" d="M180.09,37.93c77.1,0,139.82,62.72,139.82,139.82s-62.72,139.82-139.82,139.82S40.27,254.85,40.27,177.75,102.99,37.93,180.09,37.93M185.09,91.85c-1.65-.04-3.31-.05-5-.05s-3.35.01-5,.05v-43.82c-10.52.4-20.73,2.05-30.47,4.82-.88,1.32-2.05,2.87-3.54,4.84-5.8,7.66-15.7,20.71-23.78,41.71-1.4,3.61-2.74,7.46-4,11.56-4.1,1.26-7.95,2.6-11.56,4-21,8.08-34.05,17.98-41.71,23.78-1.97,1.49-3.52,2.66-4.84,3.54-2.77,9.74-4.42,19.95-4.82,30.47h-5.1v10h5.1c.4,10.52,2.05,20.73,4.82,30.47,1.32.88,2.87,2.05,4.84,3.54,7.66,5.81,20.71,15.71,41.71,23.79-4.22-15.89-7.18-34.97-7.55-57.8h10c.43,25.11,4.1,45.43,9.11,61.79,1.26,4.1,2.6,7.95,4,11.56,8.08,21,17.98,34.05,23.78,41.71,1.49,1.97,2.66,3.52,3.54,4.84,9.74,2.77,19.95,4.42,30.47,4.82v-43.82c1.65.04,3.31.05,5,.05s3.35-.01,5-.05v43.82c10.52-.4,20.73-2.05,30.47-4.82.88-1.32,2.05-2.87,3.54-4.84,5.8-7.66,15.7-20.71,23.78-41.71,1.4-3.62,2.74-7.47,4-11.57,5.01-16.36,8.68-36.68,9.11-61.78h10c-.37,22.83-3.33,41.91-7.55,57.8,21-8.09,34.05-17.98,41.71-23.79,1.97-1.49,3.52-2.66,4.84-3.54,2.77-9.74,4.42-19.95,4.82-30.47h5.1v-10h-5.1c-.4-10.52-2.05-20.73-4.82-30.47-1.32-.88-2.87-2.05-4.84-3.54-7.66-5.8-20.71-15.7-41.71-23.78-3.61-1.4-7.46-2.74-11.56-4-1.26-4.1-2.59-7.95-3.99-11.56-8.08-21-17.98-34.05-23.79-41.71-1.49-1.97-2.66-3.52-3.54-4.84-9.74-2.77-19.95-4.42-30.47-4.82v43.82M298.86,125.35c-13.07-29.52-36.84-53.28-66.35-66.36,6.75,9.51,15.48,23.64,22.34,44,20.37,6.87,34.51,15.61,44.01,22.36M61.33,125.33c9.51-6.75,23.64-15.48,44-22.34,6.86-20.36,15.59-34.49,22.34-44-29.51,13.08-53.26,36.83-66.34,66.34M232.49,296.52c29.52-13.08,53.29-36.85,66.37-66.37-9.5,6.75-23.64,15.49-44.01,22.36-6.87,20.37-15.61,34.51-22.36,44.01M127.69,296.52c-6.75-9.5-15.49-23.64-22.36-44.01-20.37-6.87-34.51-15.61-44.01-22.36,13.08,29.52,36.85,53.29,66.37,66.37M180.09,27.93C97.48,27.93,30.27,95.14,30.27,177.75s67.21,149.82,149.82,149.82,149.82-67.21,149.82-149.82S262.7,27.93,180.09,27.93h0ZM195.09,102.09v-43.23c4.87.61,9.69,1.51,14.42,2.71.51.68,1.05,1.39,1.61,2.14,5.57,7.34,14.86,19.6,22.43,39.27,1.32,3.41,2.59,7.07,3.76,10.91l1.56,5.06,5.06,1.56c3.75,1.15,7.42,2.42,10.88,3.76,19.66,7.56,31.91,16.84,39.23,22.39l.06.04c.75.57,1.47,1.11,2.15,1.62,2.04,8.07,3.24,16.4,3.56,24.8l.18,4.62-.18,4.62c-.32,8.4-1.51,16.73-3.56,24.8-.68.51-1.39,1.05-2.14,1.61-4.84,3.67-11.83,8.97-21.7,14.34,2.15-12.75,3.35-26.2,3.58-40.21l.16-10.16h-29.99l-.17,9.83c-.37,21.58-3.29,41.44-8.67,59.02-1.15,3.73-2.41,7.4-3.77,10.89-7.56,19.65-16.84,31.9-22.38,39.23l-.04.06c-.57.75-1.11,1.47-1.62,2.15-4.73,1.2-9.55,2.1-14.42,2.71v-43.23l-10.24.25c-1.34.03-2.81.05-4.76.05s-3.42-.01-4.76-.05l-10.24-.25v43.23c-4.87-.61-9.69-1.51-14.42-2.71-.51-.68-1.05-1.39-1.61-2.14l-.04-.06c-5.54-7.32-14.82-19.58-22.38-39.21-1.35-3.49-2.62-7.15-3.77-10.91-5.38-17.58-8.3-37.44-8.67-59.02l-.17-9.83h-29.99l.16,10.16c.23,14.01,1.43,27.47,3.58,40.22-9.86-5.36-16.85-10.66-21.69-14.33-.76-.57-1.48-1.12-2.16-1.63-2.04-8.07-3.24-16.4-3.56-24.8l-.18-4.62.18-4.62c.32-8.4,1.51-16.73,3.56-24.8.68-.51,1.39-1.05,2.14-1.61l.06-.04c7.32-5.54,19.58-14.82,39.21-22.38,3.49-1.35,7.15-2.62,10.91-3.77l5.06-1.56,1.56-5.06c1.15-3.75,2.42-7.42,3.76-10.88,7.56-19.66,16.84-31.91,22.39-39.23l.04-.06c.57-.75,1.11-1.47,1.62-2.15,4.73-1.2,9.55-2.1,14.42-2.71v43.23l10.24-.25c1.34-.03,2.81-.05,4.76-.05s3.42.01,4.76.05l10.24.25h0ZM262.69,95.15c-.8-2.19-1.64-4.35-2.51-6.48,3.16,2.84,6.16,5.84,9,9-2.13-.87-4.3-1.71-6.49-2.51h0ZM91.01,97.65c2.83-3.15,5.83-6.15,8.98-8.98-.87,2.13-1.71,4.29-2.51,6.48-2.19.8-4.34,1.63-6.48,2.51h0ZM262.69,260.35c2.19-.8,4.35-1.64,6.48-2.51-2.84,3.15-5.84,6.16-8.99,8.99.87-2.13,1.71-4.29,2.51-6.48h0ZM100,266.83c-3.15-2.84-6.16-5.84-8.99-8.99,2.13.87,4.29,1.71,6.48,2.51.8,2.19,1.64,4.35,2.51,6.48h0Z"/>
      </g>
      <g>
        <rect class="cls-2" x="40.27" y="167.75" width="279.64" height="20"/>
        <path class="cls-1" d="M314.91,172.75v10H45.27v-10h269.64M324.91,162.75H35.27v30h289.64v-30h0Z"/>
      </g>
      <g>
        <path class="cls-2" d="M245.41,115.74c-18.03-5.52-38.36-8.51-60.41-8.89-1.65-.04-3.27-.05-4.91-.05s-3.27,0-4.88.05c-22.09.38-42.41,3.37-60.45,8.89l-9.01,2.76,2.77-9.01c1.26-4.1,2.65-8.1,4.12-11.9l.92-2.37,2.46-.65c17.98-4.78,37.83-7.37,58.99-7.72,1.65-.04,3.35-.05,5.08-.05s3.43.01,5.12.05c21.12.34,40.97,2.94,58.96,7.72l2.46.65.92,2.37c1.44,3.72,2.82,7.72,4.11,11.9l2.77,9.01-9.01-2.76Z"/>
        <path class="cls-1" d="M180.09,91.8c1.69,0,3.35.01,5,.05,22.83.37,41.91,3.33,57.8,7.55,1.4,3.61,2.73,7.46,3.99,11.56-16.36-5.01-36.68-8.68-61.79-9.11-1.65-.04-3.31-.05-5-.05s-3.35.01-5,.05c-25.11.43-45.43,4.1-61.79,9.11,1.26-4.1,2.6-7.95,4-11.56,15.88-4.22,34.96-7.18,57.79-7.55,1.65-.04,3.31-.05,5-.05M180.09,81.8c-2.1,0-3.7.02-5.21.05-21.56.35-41.79,3-60.15,7.88l-4.92,1.31-1.84,4.74c-1.52,3.91-2.94,8.03-4.24,12.24l-5.54,18.02,18.02-5.52c17.59-5.39,37.45-8.3,59.03-8.67h.04s.04,0,.04,0c1.34-.03,2.81-.05,4.76-.05s3.41.01,4.76.05h.04s.04,0,.04,0c21.59.37,41.45,3.29,59.03,8.67l18.02,5.52-5.54-18.02c-1.32-4.29-2.74-8.41-4.23-12.24l-1.84-4.74-4.92-1.31c-18.37-4.88-38.61-7.53-60.16-7.88-1.5-.04-3.11-.05-5.21-.05h0Z"/>
      </g>
    </g>
  </g>
</svg>